<svg xmlns="http://www.w3.org/2000/svg" width="36" height="36" viewBox="0 0 36 36"><defs><style>.a,.b{fill:#fff;}.a{opacity:0;}</style></defs><g transform="translate(-200 -354)"><rect class="a" width="36" height="36" transform="translate(200 354)"/><path class="b" d="M24.086,1.928H8.193A1.771,1.771,0,0,0,6.427,3.694V28.417a1.771,1.771,0,0,0,1.766,1.766H24.086a1.771,1.771,0,0,0,1.766-1.766V3.694A1.771,1.771,0,0,0,24.086,1.928Zm-7.947,26.98a1.374,1.374,0,1,1,1.374-1.374A1.374,1.374,0,0,1,16.139,28.908Zm7.947-4.023H8.193V5.46H24.086Z" transform="translate(202.356 355.945)"/></g></svg>